<?xml version="1.0" encoding="utf-8"?>
<!-- Generator: Adobe Illustrator 25.4.1, SVG Export Plug-In . SVG Version: 6.00 Build 0)  -->
<svg version="1.1" id="Layer_1" xmlns="http://www.w3.org/2000/svg" xmlns:xlink="http://www.w3.org/1999/xlink" x="0px" y="0px"
	 viewBox="0 0 500 122" style="enable-background:new 0 0 500 122;" xml:space="preserve">
<g>
	<g>
		<g>
			<g>
				<path style="fill:#2B4742;" d="M224.4,34.7v19h-9.6V36.2c0-5.4-2.4-7.8-6.3-7.8c-4.3,0-7.4,2.8-7.4,8.7v16.7h-9.6V36.2
					c0-5.4-2.3-7.8-6.3-7.8c-4.3,0-7.3,2.8-7.3,8.7v16.7h-9.6V20.5h9.2v3.8c2.5-2.8,6.2-4.3,10.4-4.3c4.6,0,8.6,1.8,10.9,5.4
					c2.7-3.4,7-5.4,12-5.4C218.7,20,224.4,24.5,224.4,34.7z"/>
				<path style="fill:#2B4742;" d="M237.2,37.1c0-10,7.7-17.1,18.5-17.1c7,0,12.5,3,14.9,8.5l-7.5,4c-1.8-3.2-4.5-4.6-7.5-4.6
					c-4.9,0-8.7,3.4-8.7,9.2c0,5.8,3.8,9.2,8.7,9.2c3,0,5.7-1.4,7.5-4.6l7.5,4.1c-2.4,5.3-7.9,8.4-14.9,8.4
					C244.9,54.2,237.2,47.1,237.2,37.1z"/>
				<path style="fill:#2B4742;" d="M296.4,40.7l-4.6,4.6v8.5h-9.6V7.8h9.6v26l14.1-13.3h11.5l-13.8,14.1l15.1,19.2h-11.7L296.4,40.7
					z"/>
				<path style="fill:#2B4742;" d="M360,39.8h-25.2c0.9,4.1,4.5,6.7,9.5,6.7c3.5,0,6.1-1.1,8.3-3.2l5.1,5.6
					c-3.1,3.5-7.7,5.4-13.7,5.4c-11.5,0-19-7.2-19-17.1c0-9.9,7.6-17.1,17.7-17.1c9.8,0,17.3,6.6,17.3,17.2
					C360.2,37.9,360.1,39,360,39.8z M334.7,34.2h16.4c-0.7-4.2-3.8-6.9-8.2-6.9C338.6,27.3,335.4,29.9,334.7,34.2z"/>
				<path style="fill:#2B4742;" d="M406.8,34.7v19h-9.6V36.2c0-5.4-2.5-7.8-6.7-7.8c-4.6,0-8,2.8-8,9v16.4h-9.6V20.5h9.2v3.9
					c2.6-2.8,6.5-4.4,11-4.4C400.9,20,406.8,24.5,406.8,34.7z"/>
				<path style="fill:#2B4742;" d="M455.7,34.7v19H446V36.2c0-5.4-2.5-7.8-6.7-7.8c-4.6,0-8,2.8-8,9v16.4h-9.6V20.5h9.2v3.9
					c2.6-2.8,6.5-4.4,11-4.4C449.8,20,455.7,24.5,455.7,34.7z"/>
				<path style="fill:#2B4742;" d="M500,34.7v19h-9v-4.1c-1.8,3-5.3,4.6-10.1,4.6c-7.8,0-12.4-4.3-12.4-10.1c0-5.9,4.1-9.9,14.3-9.9
					h7.7c0-4.1-2.5-6.6-7.7-6.6c-3.5,0-7.2,1.2-9.6,3.1l-3.5-6.7c3.6-2.6,9-4,14.3-4C494.1,20,500,24.7,500,34.7z M490.4,43.2v-3.4
					h-6.6c-4.5,0-5.9,1.7-5.9,3.9c0,2.4,2,4,5.4,4C486.5,47.7,489.2,46.2,490.4,43.2z"/>
				<path style="fill:#2B4742;" d="M165,114.1l3.2-6.9c3,1.9,7.5,3.2,11.6,3.2c4.4,0,6.1-1.2,6.1-3c0-5.4-20.1,0.1-20.1-13.2
					c0-6.3,5.7-10.8,15.4-10.8c4.6,0,9.6,1.1,12.8,2.9l-3.2,6.9c-3.3-1.9-6.6-2.5-9.6-2.5c-4.3,0-6.2,1.4-6.2,3.1
					c0,5.7,20.1,0.2,20.1,13.3c0,6.2-5.7,10.6-15.7,10.6C173.8,117.6,168.1,116.1,165,114.1z"/>
				<path style="fill:#2B4742;" d="M204.8,100.5c0-10,7.7-17.1,18.5-17.1c7,0,12.5,3,14.9,8.5l-7.5,4c-1.8-3.2-4.5-4.6-7.5-4.6
					c-4.9,0-8.7,3.4-8.7,9.2c0,5.8,3.8,9.2,8.7,9.2c3,0,5.7-1.4,7.5-4.6l7.5,4.1c-2.4,5.3-7.9,8.4-14.9,8.4
					C212.5,117.6,204.8,110.5,204.8,100.5z"/>
				<path style="fill:#2B4742;" d="M283.7,98.1v19H274V99.6c0-5.4-2.5-7.8-6.7-7.8c-4.6,0-8,2.8-8,9v16.4h-9.6V71.3h9.6v16.1
					c2.6-2.6,6.3-4,10.6-4C277.8,83.4,283.7,88,283.7,98.1z"/>
				<path style="fill:#2B4742;" d="M328,98.2v19h-9V113c-1.8,3-5.3,4.6-10.1,4.6c-7.8,0-12.4-4.3-12.4-10.1c0-5.9,4.1-9.9,14.3-9.9
					h7.7c0-4.1-2.5-6.6-7.7-6.6c-3.5,0-7.2,1.2-9.6,3.1l-3.5-6.7c3.6-2.6,9-4,14.3-4C322.1,83.4,328,88.1,328,98.2z M318.4,106.6
					v-3.4h-6.6c-4.5,0-5.9,1.7-5.9,3.9c0,2.4,2,4,5.4,4C314.5,111.2,317.2,109.7,318.4,106.6z"/>
				<path style="fill:#2B4742;" d="M342.9,71.3h9.6v45.9h-9.6V71.3z"/>
				<path style="fill:#2B4742;" d="M367.7,71.3h9.6v45.9h-9.6V71.3z"/>
				<path style="fill:#2B4742;" d="M424.8,103.2h-25.2c0.9,4.1,4.5,6.7,9.5,6.7c3.5,0,6.1-1.1,8.3-3.2l5.1,5.6
					c-3.1,3.5-7.7,5.4-13.7,5.4c-11.5,0-19-7.2-19-17.1c0-9.9,7.6-17.1,17.7-17.1c9.8,0,17.3,6.6,17.3,17.2
					C425,101.4,424.9,102.4,424.8,103.2z M399.6,97.6h16.4c-0.7-4.2-3.8-6.9-8.2-6.9C403.4,90.7,400.2,93.4,399.6,97.6z"/>
				<path style="fill:#2B4742;" d="M458.3,83.4v8.9c-0.8-0.1-1.4-0.1-2.2-0.1c-5.3,0-8.8,2.9-8.8,9.3v15.7h-9.6V83.9h9.2v4.4
					C449.2,85.1,453.2,83.4,458.3,83.4z"/>
			</g>
		</g>
		<g>
			<path style="fill:#2B4742;" d="M75.7,69.6L75.7,69.6C75.7,69.6,75.6,69.6,75.7,69.6c-0.2,0.1-0.3,0.2-0.3,0.3
				c-1.7,1.4-3.2,3-4.4,4.7c-4.4,5.1-7.7,10.5-10.2,15.8c-0.2,0.4-0.4,0.8-0.7,1.1c0,0,0,0,0,0c-0.9,1.4-1.9,2.7-3.2,3.8
				c-0.1,0.1-0.1,0.1-0.2,0.2c0,0,0,0-0.1,0.1l0,0c-8.3,7.6-21.6,7.5-29.8-0.4c-8.2-7.9-8.3-20.5-0.2-28.4l0,0c0,0,0,0,0.1-0.1
				c0.1-0.1,0.1-0.1,0.2-0.2c1.3-1.2,2.6-2.2,4.1-3c0.2-0.1,0.4-0.3,0.6-0.4c-5.9,2-12.1,4.8-17.9,8.7c-1.9,1.1-3.7,2.4-5.3,3.9
				c-0.1,0.1-0.1,0.1-0.2,0.2c0,0-0.1,0-0.1,0.1l0,0c-10.4,10.2-7.8,45.4-7.8,45.4s35.7,1.6,46.4-8.3l0,0c0,0,0-0.1,0.1-0.1
				c0.1-0.1,0.2-0.1,0.2-0.2c1.6-1.5,3-3.2,4.1-5c4.2-5.5,7.1-11,9.3-16.5c0-0.1,0.1-0.1,0.1-0.2c0.3-0.6,0.7-1.2,1.1-1.7
				c0.8-0.9,1.7-1.8,2.6-2.7c0.1-0.1,0.1-0.1,0.2-0.2c0,0,0,0,0.1-0.1l0,0c8.8-7.1,21.8-6.1,29.3,2.5c7.5,8.5,6.5,21.4-2,28.8l0,0
				c0,0,0,0-0.1,0.1c-0.1,0.1-0.1,0.1-0.2,0.2c-1.3,1.1-2.8,2-4.3,2.8c-0.2,0.1-0.4,0.2-0.7,0.4c6-1.6,12.2-4,18.3-7.6
				c1.9-1,3.8-2.1,5.5-3.6c0.1-0.1,0.2-0.1,0.2-0.2c0,0,0.1,0,0.1-0.1l0,0c11.1-9.6,10.8-46.7,10.8-46.7S87,60.3,75.7,69.6z"/>
			<path style="fill:#2B4742;" d="M61.3,29.8c0.9-1.4,1.9-2.9,3.2-4.1c0.1-0.1,0.1-0.1,0.2-0.2c0,0,0,0,0.1-0.1l0,0
				c8.3-7.6,21.6-7.5,29.8,0.4c8.2,7.9,8.3,20.5,0.2,28.4l0,0c0,0,0,0-0.1,0.1c-0.1,0.1-0.1,0.1-0.2,0.2c-1.2,1.2-2.6,2.2-4.1,3
				c-0.3,0.2-0.6,0.4-0.9,0.6c6-2,12.2-4.9,18.1-8.9c1.9-1.1,3.6-2.4,5.2-3.9c0.1-0.1,0.1-0.1,0.2-0.2c0,0,0.1,0,0.1-0.1l0,0
				c10.4-10.2,8.4-44.3,8.4-44.3S85.4-2,74.6,7.9l0,0c0,0,0,0.1-0.1,0.1c-0.1,0.1-0.2,0.1-0.2,0.2c-1.6,1.5-3,3.2-4.1,5
				c-4.1,5.5-7.4,12-9.5,17.7C60.4,31.5,61.2,30,61.3,29.8z"/>
			<path style="fill:#2B4742;" d="M8,45.3C8,45.4,8,45.4,8,45.3c0.2,0.1,0.2,0.2,0.3,0.3c1.6,1.6,3.4,2.9,5.3,4
				c5.8,4,11.9,6.8,17.8,8.8c-0.2-0.1-0.4-0.3-0.6-0.4c-1.5-0.8-2.8-1.9-4.1-3.1c-0.1-0.1-0.1-0.1-0.2-0.2c0,0,0,0-0.1-0.1l0,0
				c-8-7.9-7.9-20.6,0.4-28.4c8.3-7.8,21.5-7.9,29.8-0.2l0,0c0,0,0,0,0.1,0.1c0.1,0.1,0.1,0.1,0.2,0.2c1.2,1.2,2.3,2.5,3.1,3.9
				c0.2,0.3,0.4,0.6,0.6,0.8c-2.1-5.7-5.1-11.6-9.3-17.3c-1.1-1.8-2.5-3.5-4.1-5c-0.1-0.1-0.2-0.1-0.2-0.2c0,0,0-0.1-0.1-0.1l0,0
				C36.1-1.5,0.3,0.5,0.3,0.5S-2.4,35.1,8,45.3L8,45.3z"/>
			<path style="fill:#2B4742;" d="M121.7,63.2c0,0-34.6-2.8-46,6.4l0,0c0,0-0.1,0.1-0.1,0.1c-0.1,0.1-0.2,0.1-0.2,0.2
				c-1.7,1.4-3.2,3-4.4,4.7c-4.4,5.1-7.7,10.5-10.2,15.8c-0.1,0.1-0.1,0.2-0.2,0.3l0.2,0.1c0.3-0.5,0.6-0.9,0.9-1.3
				c0.8-0.9,1.7-1.8,2.6-2.7c0.1-0.1,0.1-0.1,0.2-0.2c0,0,0,0,0.1-0.1l0,0c8.8-7.1,21.8-6.1,29.3,2.5c7.5,8.5,6.5,21.4-2,28.8l0,0
				c0,0,0,0-0.1,0.1c-0.1,0.1-0.1,0.1-0.2,0.2c-1.3,1.1-2.8,2-4.3,2.8c-0.2,0.1-0.4,0.2-0.7,0.4c6-1.6,12.2-4,18.3-7.6
				c1.9-1,3.8-2.1,5.5-3.6c0.1-0.1,0.2-0.1,0.2-0.2c0,0,0.1,0,0.1-0.1l0,0C121.9,100.3,121.7,63.2,121.7,63.2z"/>
		</g>
	</g>
</g>
</svg>
